<svg width="1440" height="1024" viewBox="0 0 1440 1024" fill="none" xmlns="http://www.w3.org/2000/svg">
<rect width="1440" height="1024" fill="#1E1E1E"/>
<g clip-path="url(#clip0_0_1)">
<rect width="1440" height="1024" fill="#FDF9F6"/>
<rect x="-214" y="-1" width="1862" height="1025" fill="#F0EAD2"/>
<path d="M631.489 282L538.078 282C534.413 282 531.15 279.505 530.597 275.882C526.824 251.173 541.527 240.471 558.029 240.471C558.029 212.438 626.108 195.41 626.108 264.35C638.385 264.35 638.058 273.09 635.721 279.272C635.069 280.998 633.334 282 631.489 282Z" stroke="#B5B0A0"/>
<path d="M1305.5 282L1213.07 282C1209.4 282 1206.14 279.496 1205.59 275.866C1201.86 251.168 1216.42 240.471 1232.77 240.471C1232.77 212.438 1300.21 195.41 1300.21 264.35C1312.36 264.35 1312.05 273.075 1309.74 279.255C1309.09 280.99 1307.35 282 1305.5 282Z" stroke="#B5B0A0"/>
<path d="M207.468 99L114.1 99C110.425 99 107.158 96.4911 106.607 92.8572C102.798 67.7251 117.512 56.8414 134.029 56.8414C134.029 28.3843 202.108 11.0984 202.108 81.0825C214.395 81.0825 214.057 89.9701 211.716 96.2459C211.067 97.9855 209.324 99 207.468 99Z" stroke="#B5B0A0"/>
<path d="M902.478 99L810.097 99C806.415 99 803.145 96.4821 802.599 92.8409C798.834 67.7204 813.408 56.8414 829.767 56.8414C829.767 28.3843 897.21 11.0984 897.21 81.0825C909.371 81.0825 909.048 89.9543 906.734 96.2292C906.089 97.9777 904.342 99 902.478 99Z" stroke="#B5B0A0"/>
<path d="M225.468 506L132.1 506C128.425 506 125.158 503.491 124.607 499.857C120.798 474.725 135.512 463.841 152.029 463.841C152.029 435.384 220.108 418.098 220.108 488.082C232.395 488.082 232.057 496.97 229.716 503.246C229.067 504.985 227.324 506 225.468 506Z" stroke="#B5B0A0"/>
<path d="M920.478 506L828.097 506C824.415 506 821.145 503.482 820.599 499.841C816.834 474.72 831.408 463.841 847.767 463.841C847.767 435.384 915.21 418.098 915.21 488.082C927.371 488.082 927.048 496.954 924.734 503.229C924.089 504.978 922.342 506 920.478 506Z" stroke="#B5B0A0"/>
<path d="M631.489 661L538.078 661C534.413 661 531.15 658.505 530.597 654.882C526.824 630.173 541.527 619.471 558.029 619.471C558.029 591.438 626.108 574.41 626.108 643.35C638.385 643.35 638.058 652.09 635.721 658.272C635.069 659.998 633.334 661 631.489 661Z" stroke="#B5B0A0"/>
<path d="M1305.5 661L1213.07 661C1209.4 661 1206.14 658.496 1205.59 654.866C1201.86 630.168 1216.42 619.471 1232.77 619.471C1232.77 591.438 1300.21 574.41 1300.21 643.35C1312.36 643.35 1312.05 652.075 1309.74 658.255C1309.09 659.99 1307.35 661 1305.5 661Z" stroke="#B5B0A0"/>
<path d="M-214 779.848V1018H-76.8913V779.848H-214Z" fill="#DDE5B6"/>
<path d="M-65.8967 844.879V1018H229.663V914.303H143.647V670H113.897V844.879H105.489V711.303H18.1794V844.879H-65.8967Z" fill="#DDE5B6"/>
<path d="M239.364 892.333V1018H500V892.333H239.364Z" fill="#DDE5B6"/>
<path d="M-214 779.848V1018H-76.8913V779.848H-214Z" stroke="#DDE5B6"/>
<path d="M-65.8967 844.879V1018H229.663V914.303H143.647V670H113.897V844.879H105.489V711.303H18.1794V844.879H-65.8967Z" stroke="#DDE5B6"/>
<path d="M239.364 892.333V1018H500V892.333H239.364Z" stroke="#DDE5B6"/>
<path d="M747 782.48V1022H883.917V782.48H747Z" fill="#DDE5B6"/>
<path d="M894.896 847.884V1022H1190.04V917.707H1104.15V672H1074.44V847.884H1066.04V713.54H978.854V847.884H894.896Z" fill="#DDE5B6"/>
<path d="M1199.73 895.611V1022H1460V895.611H1199.73Z" fill="#DDE5B6"/>
<path d="M747 782.48V1022H883.917V782.48H747Z" stroke="#DDE5B6"/>
<path d="M894.896 847.884V1022H1190.04V917.707H1104.15V672H1074.44V847.884H1066.04V713.54H978.854V847.884H894.896Z" stroke="#DDE5B6"/>
<path d="M1199.73 895.611V1022H1460V895.611H1199.73Z" stroke="#DDE5B6"/>
<path d="M530.717 872.429V1021H721.302V872.429L759 884.736V859.242L630.547 781L500 859.242V884.736L530.717 872.429Z" fill="#DDE5B6" stroke="#DDE5B6"/>
</g>
<defs>
<clipPath id="clip0_0_1">
<rect width="1440" height="1024" fill="white"/>
</clipPath>
</defs>
</svg>
